<svg width="38" height="25" viewBox="0 0 38 25" fill="none" xmlns="http://www.w3.org/2000/svg">
<path fill-rule="evenodd" clip-rule="evenodd" d="M32.7867 5.94641C29.7728 3.70632 25.2926 0 19.0204 0C12.7481 0 8.22722 3.70632 5.21329 5.94641C1.5477 8.71597 0 10.2229 0 12.2186C0 14.0514 1.5477 15.3955 5.21329 18.1651C8.22722 20.4866 12.7481 24.4373 19.0204 24.4373C25.2926 24.4373 29.7728 20.4866 32.7867 18.1651C36.4523 15.3955 38 14.0514 38 12.2186C38 10.2229 36.4523 8.71597 32.7867 5.94641ZM19.0204 19.0204C15.2733 19.0204 12.2186 15.9657 12.2186 12.2186C12.2186 8.4716 15.2733 5.41693 19.0204 5.41693C22.7674 5.41693 25.7814 8.4716 25.7814 12.2186C25.7814 15.9657 22.7674 19.0204 19.0204 19.0204ZM19.0204 9.48982C17.5134 9.48982 16.2915 10.7117 16.2915 12.2186C16.2915 13.7256 17.5134 14.9475 19.0204 14.9475C20.4866 14.9475 21.7085 13.7256 21.7085 12.2186C21.7085 10.7117 20.4866 9.48982 19.0204 9.48982Z" fill="white"/>
</svg>
