<svg width="32" height="32" viewBox="0 0 32 32" fill="none" xmlns="http://www.w3.org/2000/svg">
<path fill-rule="evenodd" clip-rule="evenodd" d="M16 32.0001C24.8366 32.0001 32 24.8367 32 16.0001C32 7.16357 24.8366 0.00012207 16 0.00012207C7.16344 0.00012207 0 7.16357 0 16.0001C0 24.8367 7.16344 32.0001 16 32.0001Z" fill="#EEEEEE"/>
<path fill-rule="evenodd" clip-rule="evenodd" d="M18.6721 12.1225C18.3443 12.0267 17.9672 11.9629 17.623 11.9629C17.1967 11.9629 16.2787 12.2342 16.2787 12.7608V14.0214H18.459V16.1437H16.2787V22.0001H14.082V16.1437H13V14.0214H14.082V12.9522C14.082 11.3405 14.8361 10.0001 16.6557 10.0001C17.2787 10.0001 18.3934 10.032 19 10.2395L18.6721 12.1225Z" fill="#656B6F"/>
</svg>
