<svg width="32" height="32" viewBox="0 0 32 32" fill="none" xmlns="http://www.w3.org/2000/svg">
<path fill-rule="evenodd" clip-rule="evenodd" d="M16 32.0001C24.8366 32.0001 32 24.8367 32 16.0001C32 7.16357 24.8366 0.00012207 16 0.00012207C7.16344 0.00012207 0 7.16357 0 16.0001C0 24.8367 7.16344 32.0001 16 32.0001Z" fill="#EEEEEE"/>
<path d="M21.9639 13.5263C21.9347 12.8876 21.8333 12.4515 21.685 12.0699C21.5344 11.6695 21.2982 11.3069 20.9929 11.0071C20.6933 10.7019 20.3305 10.4656 19.9302 10.3149C19.5485 10.1667 19.1124 10.0653 18.4738 10.0363C17.8339 10.007 17.6295 10.0001 16 10.0001C14.3705 10.0001 14.1661 10.007 13.5262 10.0361C12.8876 10.0653 12.4515 10.1668 12.0698 10.3151C11.6695 10.4657 11.3068 10.7019 11.0071 11.0071C10.7018 11.3068 10.4655 11.6694 10.3148 12.0698C10.1666 12.4515 10.0653 12.8876 10.0363 13.5262C10.007 14.1662 10 14.3705 10 16C10 17.6295 10.007 17.834 10.0363 18.4738C10.0654 19.1124 10.1668 19.5486 10.3151 19.9302C10.4657 20.3305 10.7019 20.6932 11.0072 20.9929C11.3068 21.2981 11.6696 21.5343 12.0699 21.6849C12.4515 21.8333 12.8877 21.9347 13.5263 21.9639C14.1663 21.9931 14.3706 22 16.0001 22C17.6295 22 17.834 21.9931 18.4738 21.9639C19.1125 21.9347 19.5486 21.8333 19.9303 21.6849C20.7362 21.3733 21.3733 20.7362 21.685 19.9302C21.8334 19.5486 21.9347 19.1124 21.9639 18.4738C21.993 17.8339 22 17.6295 22 16.0001C22 14.3705 21.993 14.1662 21.9639 13.5263ZM20.8839 18.4247C20.8572 19.0097 20.7595 19.3274 20.6773 19.5388C20.4755 20.0621 20.0619 20.4756 19.5386 20.6775C19.3272 20.7596 19.0095 20.8574 18.4245 20.884C17.792 20.913 17.6022 20.919 16 20.919C14.3977 20.919 14.208 20.913 13.5754 20.884C12.9905 20.8574 12.6728 20.7596 12.4613 20.6775C12.2007 20.5813 11.965 20.4279 11.7715 20.2286C11.5721 20.0351 11.4188 19.7994 11.3226 19.5388C11.2404 19.3274 11.1427 19.0097 11.116 18.4247C11.0872 17.792 11.0811 17.6022 11.0811 16.0002C11.0811 14.398 11.0872 14.2083 11.116 13.5756C11.1428 12.9905 11.2404 12.6729 11.3226 12.4615C11.4188 12.2008 11.5722 11.9651 11.7715 11.7715C11.965 11.5722 12.2007 11.4189 12.4614 11.3227C12.6728 11.2405 12.9905 11.1428 13.5755 11.1161C14.2081 11.0872 14.3979 11.0811 16 11.0811H15.9999C17.602 11.0811 17.7918 11.0872 18.4245 11.1162C19.0095 11.1428 19.3271 11.2406 19.5386 11.3227C19.7992 11.4189 20.0349 11.5723 20.2285 11.7715C20.4278 11.9651 20.5811 12.2008 20.6772 12.4615C20.7595 12.6729 20.8572 12.9905 20.8839 13.5756C20.9127 14.2082 20.9189 14.398 20.9189 16.0001C20.9189 17.6022 20.9128 17.7919 20.8839 18.4247Z" fill="url(#paint0_linear)"/>
<path d="M16 12.9189C14.2984 12.9189 12.9189 14.2984 12.9189 16C12.9189 17.7016 14.2984 19.081 16 19.081C17.7017 19.081 19.0811 17.7016 19.0811 16C19.0811 14.2984 17.7017 12.9189 16 12.9189ZM16 18C14.8955 17.9999 14 17.1045 14.0001 15.9999C14.0001 14.8954 14.8955 13.9999 16.0001 13.9999C17.1046 14 18 14.8954 18 15.9999C18 17.1045 17.1046 18 16 18Z" fill="url(#paint1_linear)"/>
<path d="M19.9227 12.7972C19.9227 13.1948 19.6003 13.5172 19.2027 13.5172C18.805 13.5172 18.4827 13.1948 18.4827 12.7972C18.4827 12.3995 18.805 12.0771 19.2027 12.0771C19.6003 12.0771 19.9227 12.3995 19.9227 12.7972Z" fill="url(#paint2_linear)"/>
<defs>
<linearGradient id="paint0_linear" x1="11.007" y1="20.9929" x2="20.993" y2="11.007" gradientUnits="userSpaceOnUse">
<stop stop-color="#FFD600"/>
<stop offset="0.5" stop-color="#FF0100"/>
<stop offset="1" stop-color="#D800B9"/>
</linearGradient>
<linearGradient id="paint1_linear" x1="13.8214" y1="18.1786" x2="18.1787" y2="13.8213" gradientUnits="userSpaceOnUse">
<stop stop-color="#FF6400"/>
<stop offset="0.5" stop-color="#FF0100"/>
<stop offset="1" stop-color="#FD0056"/>
</linearGradient>
<linearGradient id="paint2_linear" x1="18.6936" y1="13.3063" x2="19.7118" y2="12.2881" gradientUnits="userSpaceOnUse">
<stop stop-color="#F30072"/>
<stop offset="1" stop-color="#E50097"/>
</linearGradient>
</defs>
</svg>
