<svg width="93" height="71" viewBox="0 0 93 71" fill="none" xmlns="http://www.w3.org/2000/svg">
<path fill-rule="evenodd" clip-rule="evenodd" d="M40.878 14.2891C42.584 14.5266 41.4731 15.0807 42.7625 15.0609C44.7462 15.0213 43.6155 14.5068 44.4288 14.1505C44.5081 15.813 44.1312 16.288 43.4964 17.4358C43.0402 18.267 42.3261 18.7024 41.7508 20.0284C41.2747 21.1169 40.878 22.0867 41.0764 23.571C41.2549 24.7782 42.0285 25.8469 42.7426 26.2427C42.9807 26.0448 43.6948 24.9959 44.5676 24.2834C46.829 22.4429 49.3483 23.096 51.0542 25.1938L51.9271 26.2625C52.6412 25.9459 53.4148 24.8178 53.6132 23.6897C53.8909 22.0867 53.1569 19.9492 52.2048 18.7816C51.0542 17.3962 50.2211 16.3473 50.2806 14.1901C51.1336 14.5266 49.9632 15.0609 52.0262 15.1005C53.1569 15.1203 52.3436 14.487 53.8512 14.3485C53.514 13.7745 52.8594 13.5568 52.0262 13.537C51.4708 13.5172 50.1418 13.636 49.7252 13.8933C49.4475 16.3671 50.0227 16.7233 50.7369 17.9306C51.451 19.118 52.1849 19.4941 52.4031 21.394C52.5618 22.7595 52.1651 23.2543 51.7089 24.1845C51.4113 24.0459 51.2328 23.6501 50.0426 23.0564C49.7053 22.8981 48.1978 22.3241 48.0787 22.245C47.9399 21.5325 48.3763 20.4836 48.7135 20.1076C49.5268 19.217 49.3681 19.5138 50.5583 19.0785C50.3798 18.6628 49.7649 18.2077 49.2094 18.1483C48.5548 18.0691 48.0787 18.5045 47.2654 18.4847C46.5711 18.4649 46.0951 18.0493 45.3611 18.1681C44.9049 18.2472 44.1709 18.8608 44.1114 19.0982C46.71 19.4347 46.7298 22.0669 46.6306 22.245C46.4521 22.3637 45.0437 22.8585 44.6866 23.0168C43.5956 23.5512 43.5758 23.7491 43.0402 24.1647C42.5046 23.8084 42.2071 22.4033 42.2666 21.5523C42.4451 19.217 43.8535 18.4649 44.5875 16.9608C45.0239 16.09 45.0437 14.9422 44.9445 13.8537C44.3693 13.6558 43.3973 13.5172 42.703 13.537C41.8698 13.5568 41.1755 13.7547 40.8185 14.3287L40.878 14.2891Z" fill="#E3F1FF"/>
<path d="M52.5023 4.17586C53.9703 3.91857 53.6529 2.39468 52.4825 2.31552C51.9072 2.27594 51.4113 2.65196 51.332 3.10715C51.2328 3.79983 51.7287 3.91857 52.0858 4.17586C51.7287 4.9477 50.5782 5.81849 49.5268 6.11535C49.626 6.4518 50.1021 7.16426 50.2806 7.38196C50.5385 7.67882 51.2328 7.75799 51.7089 7.89652C53.395 8.45066 52.8792 8.66836 54.9224 8.33192L54.367 9.63811C54.3273 9.71727 54.3075 9.75686 54.2678 9.79644C53.0975 9.49958 52.304 9.18292 50.9551 9.00481C49.745 8.84648 48.4953 8.76732 47.2654 8.76732C44.766 8.76732 42.6236 9.04439 40.4416 9.79644C40.3424 9.63811 39.8465 8.47046 39.787 8.33192C41.8699 8.66836 41.2747 8.43087 42.9807 7.89652C43.5956 7.69861 44.0717 7.69861 44.4288 7.32259C44.6867 7.04552 45.0636 6.53096 45.2024 6.11535C44.2106 5.89765 42.9212 4.88832 42.6435 4.19565C43.0005 3.93837 43.556 3.79983 43.3774 3.04778C43.2783 2.59259 42.7625 2.29573 42.2269 2.33531C41.1954 2.41448 40.9772 3.48318 41.612 3.93837C41.7112 3.99774 41.8103 4.05711 41.9294 4.09669C42.0087 4.11648 42.0285 4.13627 42.0881 4.15606C42.2071 4.21544 42.1674 4.17586 42.2467 4.25502C42.3261 5.7987 41.5921 6.70907 40.6003 7.20384C40.0052 6.94656 38.815 5.50184 38.3191 4.90811C38.1405 4.69042 37.8232 4.31439 37.6843 4.09669C38.7952 2.94883 37.4463 2.1572 36.6131 2.45406C35.7998 2.75092 35.4626 4.13627 37.1685 4.25502C37.2876 4.69042 37.5454 5.22477 37.7041 5.67995C38.1009 6.78824 38.8348 9.2423 38.8547 10.2912C38.3984 9.83602 37.4264 9.6579 36.99 10.2318C39.668 11.5974 34.4509 16.5253 33.8756 20.6418C33.6971 21.9678 33.8756 23.9271 34.6691 24.6989C34.5699 23.1552 34.4311 22.3042 34.7881 20.7605C35.2642 18.7221 36.5734 16.6836 37.7041 14.9816C38.0017 14.5462 38.2596 14.1108 38.5373 13.6358C38.8547 13.0817 38.934 12.7255 39.2117 12.1318L39.8465 12.112C39.6283 13.339 38.7952 14.5858 38.2397 15.4368C37.5653 16.4857 37.0297 17.2774 36.4346 18.544C34.6493 22.2646 34.6691 26.4603 38.081 29.1122C40.3821 30.8736 44.0916 31.3288 45.8372 33.5454C46.0157 33.7829 46.1943 33.961 46.3926 34.2381C46.5513 34.4558 46.6703 34.6932 46.8885 34.8912C46.6902 29.5279 38.5571 31.0715 36.9107 25.2926C36.4941 23.8677 36.6329 22.423 37.0098 21.0376C37.6248 18.7815 38.1207 18.4054 38.8745 16.7628C39.4696 15.4962 41.3739 13.5567 41.5128 10.8651C43.7345 10.5485 44.3891 10.0141 47.444 10.0339C48.8524 10.0339 52.0659 10.41 53.2363 10.9245C53.3355 12.4088 53.9108 13.4973 54.5257 14.5462C56.2317 17.4753 59.0088 21.3345 57.8384 25.3124C56.1325 31.0913 48.1383 29.5278 47.8804 34.8516L49.0309 33.4464C50.1219 32.1204 51.9866 31.4278 53.5735 30.7549C54.7637 30.2601 55.9143 29.7455 56.7673 29.0529C58.9096 27.3311 59.8221 25.0551 59.4055 22.1855C59.1278 20.2658 58.3939 18.5242 57.4417 16.8617L56.4895 15.3972C55.9738 14.6848 55.0811 13.2005 54.9224 12.1515C55.8349 12.1318 55.339 11.9932 56.192 13.6161C57.3028 15.7139 59.2468 17.8513 59.9411 20.7407C60.3379 22.3636 60.1593 23.0958 60.0998 24.6989C60.933 23.9864 61.0718 21.6709 60.8338 20.5428C60.4767 18.9002 60.4172 19.0981 59.9015 17.7523C59.7626 17.3763 59.6039 17.2576 59.465 16.9409C58.3344 14.5066 55.7556 11.6766 57.7591 10.2318C57.5607 10.0141 57.1045 9.89539 56.7276 9.93497C56.2515 9.99435 56.1126 10.2318 55.8151 10.3902C56.0928 8.17359 56.9458 6.2341 57.5806 4.33418C58.136 4.21544 58.5922 4.15606 58.7509 3.6415C59.108 2.55301 57.402 1.95929 56.7871 2.92904C56.4102 3.50297 56.8664 3.89878 57.0846 4.17586C56.8069 4.41334 55.101 6.68928 54.2083 7.26322C53.0181 6.8674 52.4428 5.56121 52.5023 4.23523V4.17586ZM43.7543 22.324C43.675 22.324 43.5956 22.2448 43.5956 22.1657C43.5956 22.0865 43.675 22.0074 43.7543 22.0074C43.8337 22.0074 43.913 22.0865 43.913 22.1657C43.913 22.2448 43.8337 22.324 43.7543 22.324ZM43.556 21.1761C43.4766 21.1761 43.3973 21.097 43.3973 21.0178C43.3973 20.9387 43.4766 20.8595 43.556 20.8595C43.6353 20.8595 43.7147 20.9387 43.7147 21.0178C43.7147 21.097 43.6353 21.1761 43.556 21.1761ZM45.6983 21.6313C45.619 21.6313 45.5396 21.5522 45.5396 21.473C45.5396 21.3938 45.619 21.3147 45.6983 21.3147C45.7777 21.3147 45.857 21.3938 45.857 21.473C45.857 21.5522 45.7777 21.6313 45.6983 21.6313ZM44.8454 22.2448C44.766 22.2448 44.6867 22.1657 44.6867 22.0865C44.6867 22.0074 44.766 21.9282 44.8454 21.9282C44.9247 21.9282 45.0041 22.0074 45.0041 22.0865C45.0041 22.1657 44.9247 22.2448 44.8454 22.2448ZM44.528 21.3938C44.4486 21.3938 44.3693 21.3147 44.3693 21.2355C44.3693 21.1563 44.4486 21.0772 44.528 21.0772C44.6073 21.0772 44.6867 21.1563 44.6867 21.2355C44.6867 21.3147 44.6073 21.3938 44.528 21.3938ZM44.3891 20.4835C44.3098 20.4835 44.2304 20.4043 44.2304 20.3251C44.2304 20.246 44.3098 20.1668 44.3891 20.1668C44.4685 20.1668 44.5478 20.246 44.5478 20.3251C44.5478 20.4043 44.4685 20.4835 44.3891 20.4835ZM45.2619 20.8595C45.1826 20.8595 45.1032 20.7803 45.1032 20.7012C45.1032 20.622 45.1826 20.5428 45.2619 20.5428C45.3413 20.5428 45.4206 20.622 45.4206 20.7012C45.4206 20.7803 45.3413 20.8595 45.2619 20.8595ZM50.9749 22.3042C51.0543 22.3042 51.1336 22.225 51.1336 22.1459C51.1336 22.0667 51.0543 21.9876 50.9749 21.9876C50.8956 21.9876 50.8162 22.0667 50.8162 22.1459C50.8162 22.225 50.8956 22.3042 50.9749 22.3042ZM51.1733 21.1563C51.2526 21.1563 51.332 21.0772 51.332 20.998C51.332 20.9189 51.2526 20.8397 51.1733 20.8397C51.0939 20.8397 51.0146 20.9189 51.0146 20.998C51.0146 21.0772 51.0939 21.1563 51.1733 21.1563ZM49.0309 21.6115C49.1103 21.6115 49.1896 21.5324 49.1896 21.4532C49.1896 21.374 49.1103 21.2949 49.0309 21.2949C48.9516 21.2949 48.8722 21.374 48.8722 21.4532C48.8722 21.5324 48.9516 21.6115 49.0309 21.6115ZM49.8839 22.225C49.9632 22.225 50.0426 22.1459 50.0426 22.0667C50.0426 21.9876 49.9632 21.9084 49.8839 21.9084C49.8046 21.9084 49.7252 21.9876 49.7252 22.0667C49.7252 22.1459 49.8046 22.225 49.8839 22.225ZM50.2013 21.374C50.2806 21.374 50.36 21.2949 50.36 21.2157C50.36 21.1366 50.2806 21.0574 50.2013 21.0574C50.1219 21.0574 50.0426 21.1366 50.0426 21.2157C50.0426 21.2949 50.1219 21.374 50.2013 21.374ZM50.3401 20.4637C50.4195 20.4637 50.4988 20.3845 50.4988 20.3053C50.4988 20.2262 50.4195 20.147 50.3401 20.147C50.2608 20.147 50.1814 20.2262 50.1814 20.3053C50.1814 20.3845 50.2608 20.4637 50.3401 20.4637ZM49.4673 20.8397C49.5467 20.8397 49.626 20.7605 49.626 20.6814C49.626 20.6022 49.5467 20.523 49.4673 20.523C49.388 20.523 49.3086 20.6022 49.3086 20.6814C49.3086 20.7605 49.388 20.8397 49.4673 20.8397ZM44.8454 17.7523C45.8967 17.5148 46.1744 16.4857 46.0356 15.5556C46.0157 15.417 45.9761 15.2389 45.9364 15.1202C45.9165 15.0806 45.857 14.9223 45.857 14.8827L45.7182 14.665C45.6587 15.2785 45.6388 15.8326 45.5 16.4066C45.4405 16.6836 45.4008 16.9013 45.2818 17.0992C45.1429 17.3367 44.9842 17.4555 44.8652 17.7325L44.8454 17.7523ZM49.8839 17.7523C49.5863 17.1388 49.4277 17.218 49.2491 16.4066C49.1499 15.9118 49.1698 15.0806 48.9912 14.7046C48.2771 15.7139 48.6739 17.5148 49.8839 17.7523ZM44.2304 11.3599C45.4206 11.6172 45.738 12.1515 46.4521 12.6661C46.6902 12.8442 47.0076 12.9432 47.3646 12.9432C48.0986 12.9432 48.4358 12.5671 48.9317 12.1318C49.4277 11.6964 49.7847 11.5974 50.5385 11.3203C50.1021 11.1422 49.269 11.162 48.8127 11.3203C48.3168 11.4984 48.0986 11.9141 47.4241 11.9338C46.7497 11.9536 46.4918 11.5578 46.0157 11.3599C45.6388 11.2016 44.528 11.0433 44.2106 11.3599H44.2304ZM47.3646 29.8247C47.5828 29.6664 47.4241 29.8247 47.563 29.5476C47.7614 29.132 47.7812 28.9935 48.1581 28.5977C49.269 27.4498 51.7287 27.1925 51.0741 25.7478C50.9551 25.5103 51.0146 25.6291 50.9352 25.5499C50.5385 25.9457 50.3203 26.6978 49.388 26.579C48.7135 26.4999 48.3168 26.0447 47.3646 26.0447C45.9761 26.0447 45.1826 27.3509 44.1114 25.9655L43.8535 25.6291C43.8337 25.6093 43.8139 25.5895 43.794 25.5895C43.7742 25.5697 43.7543 25.5499 43.7345 25.5499C43.5758 26.302 43.4568 26.6186 44.0519 27.0342C44.4883 27.3509 44.885 27.5092 45.3413 27.7665C47.3646 28.9143 46.8886 29.4289 47.3448 29.8643L47.3646 29.8247ZM47.1068 1.86033C46.9679 3.2259 46.2339 5.04665 45.5595 6.21431C45.3413 6.61012 44.9842 7.00594 44.8255 7.36217L49.9236 7.38196C49.7649 7.02573 49.4078 6.57054 49.1896 6.19451C48.9317 5.73933 48.7532 5.40288 48.535 4.90811C48.1581 4.01753 47.7614 2.90925 47.6423 1.84054C48.9119 1.52389 48.5747 0 47.3646 0C46.0157 0 45.8372 1.60305 47.1068 1.86033ZM47.0076 31.3684C47.1663 27.6873 43.0204 28.2612 41.1161 25.2135C40.0845 23.5708 40.5408 22.1261 41.0169 20.3251C41.493 18.5835 41.5921 16.5451 39.7275 16.1889C39.8663 16.7628 40.3821 17.218 40.2829 18.5835C40.1441 20.4637 38.3984 23.4323 40.3226 25.9061C41.7905 27.7665 43.2584 27.8258 44.8255 28.8748C45.5198 29.3299 45.2024 29.132 45.6785 29.5872C46.0951 30.0028 46.3728 30.3591 46.6703 30.8538L47.0076 31.3684ZM47.7614 31.408C47.9597 31.1309 48.1184 30.7747 48.3168 30.4976C48.535 30.1612 48.773 29.8643 48.9912 29.6268C50.6179 27.7863 56.8069 27.3904 55.0216 21.0574C54.8232 20.3449 54.5059 19.3752 54.4464 18.6033C54.367 17.3961 54.7042 17.0992 55.0216 16.2284C54.2083 16.3472 53.6727 16.9607 53.4743 17.6732C52.8991 19.7908 55.2993 22.6209 53.633 25.1937C51.689 28.2019 47.2853 27.9644 47.7415 31.4278L47.7614 31.408ZM46.9481 32.9319C47.1266 30.4778 43.675 29.0925 42.0682 28.3008C39.7076 27.153 38.2794 25.3718 38.6365 22.3042C38.8943 20.2064 39.8267 19.395 39.4696 16.9805C39.4498 17.0003 39.4299 17.0003 39.4101 17.0399C39.4101 17.0794 39.3704 17.0794 39.3704 17.0992C39.2911 17.1982 39.3307 17.1388 39.2514 17.2576C39.1721 17.3961 39.1522 17.4357 39.0729 17.5544C38.934 17.7721 38.8745 17.8909 38.7753 18.1086C38.2794 19.5137 37.8628 19.9689 37.5256 21.9876C37.1289 24.3229 37.6645 25.9259 38.8745 27.2519C40.9177 29.4487 44.8454 29.8643 46.5712 32.3975C46.71 32.5954 46.7695 32.7537 46.9084 32.9319H46.9481ZM56.0928 22.2053C56.3705 24.2833 55.7159 25.9853 54.6646 26.9748C52.6412 28.8945 47.8804 29.5476 47.7614 32.8527L47.8804 32.7537C47.9002 32.734 47.9201 32.7142 47.9399 32.6944C48.3961 32.1798 48.3366 31.9423 49.507 31.0517C51.6295 29.4487 54.5257 28.9143 55.9143 27.1925C57.0846 25.7082 57.6401 24.3625 57.1838 21.9084C56.9656 20.7012 55.9936 17.6534 55.339 16.9805C54.7637 18.6033 55.8944 20.6022 56.1126 22.2053H56.0928Z" fill="#E3F1FF"/>
<path fill-rule="evenodd" clip-rule="evenodd" d="M46.6504 40.9273C46.333 40.1357 42.4648 36.2963 41.4135 35.4651C41.7904 35.6036 42.6235 36.1973 42.9608 36.4348C43.4765 36.791 43.9526 37.1473 44.4089 37.5431C44.8651 37.9389 45.3015 38.3743 45.6586 38.7701C45.8569 38.968 46.0553 39.2253 46.214 39.443C46.333 39.5815 46.6504 40.0763 46.7694 40.1555C47.0075 38.2753 46.0355 36.8108 45.0238 35.9005C43.8931 34.8911 42.2863 34.5349 40.7589 34.5745C40.382 34.5745 40.382 34.5547 40.3622 34.9505C40.0646 38.7107 42.8616 41.3231 46.6306 40.9273H46.6504Z" fill="#E3F1FF"/>
<path fill-rule="evenodd" clip-rule="evenodd" d="M47.8208 39.2847C47.682 37.5035 47.3646 35.0494 47.5431 33.3276C46.829 35.94 46.6505 38.8097 47.563 41.4023C47.4638 41.2242 47.2654 41.0065 47.1266 40.8086C46.9877 40.6304 46.7893 40.4325 46.6108 40.2544C46.2934 39.9378 45.8967 39.5024 45.5396 39.2253C45.619 39.3638 45.8372 39.6013 45.9363 39.7596C46.591 40.7096 47.0472 41.4221 47.2852 42.2929C47.9795 44.8657 47.563 59.0161 44.9643 60.1837C44.9247 60.3816 45.976 60.3025 47.0075 60.2827C47.9795 60.2827 50.0822 60.3618 50.1417 60.0254C46.2141 58.5609 48.6341 52.6434 48.4159 42.1147C48.2572 40.2148 47.8407 39.3638 48.8722 37.4045C48.9912 37.167 49.0904 37.0087 49.2292 36.791C49.3483 36.5931 49.507 36.415 49.6061 36.2567C49.2094 36.6327 48.892 37.0087 48.5945 37.5629C48.3168 38.0378 48.1382 38.5128 47.9597 39.0274L47.8605 39.2451L47.8208 39.2847Z" fill="#E3F1FF"/>
<path fill-rule="evenodd" clip-rule="evenodd" d="M48.7729 36.8703L49.9036 35.7224C51.0542 34.6933 52.5221 33.6642 54.0495 33.1694C53.5536 33.2881 51.7485 34.6339 51.2922 35.0693C50.6773 35.6432 49.5069 36.8505 49.0903 37.6421C50.6574 37.8796 52.3634 37.1078 53.137 36.4151C54.0495 35.6234 54.9422 34.2777 55.081 32.5757C52.8196 32.5163 50.7566 33.0506 49.4871 34.7724C49.0903 35.3266 48.8126 36.0391 48.7729 36.8703Z" fill="#E3F1FF"/>
<path d="M7.33395 57.3537V44.2522H1.77966V42.293H15.0108V44.2522H9.45649V57.3537H7.31412H7.33395ZM51.3517 49.8332C51.3517 50.6051 51.4906 51.3373 51.7881 52.03C52.0658 52.7227 52.4824 53.3362 53.0378 53.8903C53.5734 54.4247 54.1884 54.8403 54.8826 55.1372C55.5968 55.434 56.3307 55.5726 57.1044 55.5726C57.8978 55.5726 58.6318 55.434 59.3261 55.1372C60.0204 54.8601 60.6353 54.4445 61.1907 53.8903C61.7263 53.356 62.1429 52.7425 62.4404 52.03C62.738 51.3373 62.8769 50.6051 62.8769 49.8332C62.8769 49.0614 62.738 48.3489 62.4404 47.6563C62.1627 46.9636 61.7263 46.3501 61.1709 45.7761C60.6353 45.222 60.0204 44.8064 59.3062 44.5095C58.612 44.2127 57.878 44.0741 57.1044 44.0741C56.3506 44.0741 55.6364 44.2127 54.9223 44.5095C54.228 44.8064 53.5933 45.222 53.0378 45.7761C52.5022 46.2907 52.0857 46.9042 51.7881 47.6167C51.5104 48.3094 51.3517 49.0614 51.3517 49.8332ZM49.0506 49.7541C49.0506 48.7448 49.249 47.775 49.6656 46.825C50.0822 45.8751 50.6574 45.0439 51.4112 44.3116C52.1848 43.5794 53.0577 43.0054 54.0297 42.6294C55.0017 42.2336 56.0133 42.0555 57.0845 42.0555C58.1755 42.0555 59.2071 42.2534 60.1989 42.6492C61.1709 43.045 62.0437 43.5991 62.7975 44.3314C63.591 45.0835 64.1662 45.9345 64.563 46.8646C64.9597 47.7948 65.1581 48.8041 65.1581 49.9124C65.1581 50.9415 64.9597 51.9311 64.5431 52.8612C64.1464 53.8112 63.5513 54.6424 62.8173 55.3549C62.0239 56.1069 61.1511 56.6611 60.1989 57.0569C59.2269 57.4329 58.1954 57.6308 57.1044 57.6308C56.0332 57.6308 55.0017 57.4329 54.0297 57.0371C53.0577 56.6413 52.1848 56.0871 51.431 55.3549C50.6574 54.6028 50.0623 53.7518 49.6656 52.8019C49.2688 51.8519 49.0705 50.8426 49.0705 49.7541H49.0506ZM38.3785 44.3314H34.9665V55.2955H38.3785C40.2431 55.2955 41.711 54.8007 42.7624 53.831C43.8336 52.8612 44.3493 51.5155 44.3493 49.8332C44.3493 48.1312 43.8137 46.7855 42.7624 45.8157C41.6912 44.8262 40.2431 44.3512 38.3785 44.3512V44.3314ZM38.3785 42.2732C39.4893 42.2732 40.4613 42.3721 41.2548 42.5898C42.0483 42.8075 42.7822 43.1242 43.4567 43.5794C44.4882 44.272 45.2618 45.1626 45.8172 46.2313C46.3727 47.3198 46.6504 48.5073 46.6504 49.7937C46.6504 51.0998 46.3727 52.2873 45.8172 53.3758C45.2618 54.4643 44.4683 55.3549 43.4567 56.0278C42.8021 56.4829 42.0681 56.7996 41.2548 57.0173C40.4415 57.235 39.4893 57.3339 38.3785 57.3339H32.8242V42.2732H38.3785ZM81.6424 56.1663V53.3362C82.3367 54.1278 82.9715 54.682 83.6063 55.0184C84.2212 55.3549 84.8956 55.533 85.5899 55.533C86.3437 55.533 86.919 55.3549 87.3554 55.0184C87.7918 54.6622 88.01 54.207 88.01 53.6133C88.01 53.1185 87.8712 52.7029 87.5736 52.3269C87.2761 51.9509 86.5818 51.4165 85.4907 50.7238C83.7848 49.6155 82.7136 48.7645 82.2772 48.1708C81.8408 47.5771 81.6226 46.8448 81.6226 46.0136C81.6226 44.846 82.0391 43.8762 82.8723 43.1242C83.7054 42.3721 84.7766 41.9961 86.0859 41.9961C86.6611 41.9961 87.2364 42.0753 87.8116 42.2534C88.3671 42.4315 88.9423 42.6888 89.5176 43.045V45.4991C88.863 44.9647 88.2481 44.5887 87.6926 44.3314C87.1372 44.0939 86.5818 43.9752 86.0065 43.9752C85.3321 43.9752 84.7766 44.1335 84.3402 44.4699C83.9038 44.8064 83.7054 45.2418 83.7054 45.7563C83.7054 46.5084 84.5981 47.4386 86.3636 48.5271L86.681 48.725C88.129 49.6155 89.0812 50.4072 89.5176 51.0998C89.954 51.7925 90.1921 52.6435 90.1921 53.6529C90.1921 54.8007 89.7755 55.7507 88.9423 56.5027C88.1092 57.2548 87.038 57.6308 85.7288 57.6308C84.9155 57.6308 84.1815 57.5121 83.5269 57.2944C82.8723 57.0569 82.2375 56.7006 81.6424 56.2059V56.1663ZM67.6575 57.3339V42.2732H72.0811C73.6085 42.2732 74.7789 42.6294 75.612 43.3419C76.4452 44.0543 76.8618 45.0835 76.8618 46.3896C76.8618 47.3792 76.6237 48.1708 76.1873 48.7843C75.7311 49.3781 75.0169 49.8332 74.0251 50.1499C74.283 50.2884 74.521 50.4665 74.7392 50.6842C74.9574 50.9019 75.255 51.278 75.612 51.8123L79.2818 57.3142H76.6634L74.0648 53.356C73.2911 52.1686 72.6564 51.3967 72.1803 51.0801C71.7042 50.7436 71.1289 50.5853 70.4743 50.5853H69.8197V57.3142H67.6575V57.3339ZM69.8197 48.8041H71.605C72.6167 48.8041 73.3705 48.6062 73.8664 48.2302C74.3623 47.8344 74.6202 47.2407 74.6202 46.449C74.6202 45.6376 74.3822 45.0439 73.9061 44.6678C73.43 44.2918 72.6564 44.1137 71.605 44.1137H69.8197V48.8041ZM17.4507 42.2732H19.5931V50.9217C19.5931 51.8915 19.6526 52.5644 19.7518 52.9602C19.8509 53.356 20.0295 53.7122 20.2874 54.0091C20.7238 54.5434 21.2594 54.9195 21.8743 55.1768C22.4892 55.434 23.1835 55.5726 23.9571 55.5726C25.2664 55.5726 26.3177 55.2361 27.1112 54.5632C27.9047 53.8903 28.3014 52.9998 28.3014 51.8915V42.2732H30.4438V51.9509C30.4438 53.6331 29.8487 54.9788 28.6386 56.0278C27.4286 57.0767 25.8813 57.5912 23.9373 57.5912C22.7868 57.5912 21.7553 57.3933 20.8428 56.9777C19.9303 56.5621 19.1567 55.9684 18.5219 55.1965C18.1251 54.7216 17.8673 54.207 17.6887 53.6331C17.53 53.0591 17.4507 52.1686 17.4507 50.9811V42.2534V42.2732Z" fill="#E3F1FF"/>
<path d="M3.70392 62.1231C3.66425 62.9543 12.0354 61.6679 12.3329 61.6086C29.452 59.6691 59.0683 60.4805 76.7032 61.4898C78.1711 61.5888 95.4291 62.4992 92.6916 61.4898C90.3905 60.9753 83.408 60.8169 80.7895 60.5992C76.4056 60.3815 -19.8423 58.541 3.70392 62.1231Z" fill="#E3F1FF"/>
<path d="M25.3061 69.3075V67.8826C25.6433 68.2784 25.9805 68.5555 26.2781 68.7336C26.5955 68.9117 26.9129 68.9909 27.2699 68.9909C27.6468 68.9909 27.9444 68.9117 28.1626 68.7336C28.3808 68.5555 28.48 68.318 28.48 68.0211C28.48 67.7836 28.4006 67.5659 28.2618 67.368C28.1229 67.1899 27.7658 66.9128 27.2104 66.5764C26.3574 66.0222 25.8218 65.6066 25.6036 65.29C25.3854 64.9931 25.2863 64.6369 25.2863 64.2213C25.2863 63.6276 25.5045 63.1526 25.9012 62.7766C26.3178 62.4005 26.8534 62.2224 27.508 62.2224C27.8055 62.2224 28.0832 62.262 28.3808 62.3412C28.6585 62.4203 28.9561 62.5589 29.2338 62.737V63.964C28.8965 63.7067 28.599 63.5088 28.3213 63.3901C28.0436 63.2713 27.7658 63.212 27.4881 63.212C27.1509 63.212 26.8732 63.2911 26.655 63.4692C26.4368 63.6276 26.3376 63.8453 26.3376 64.1223C26.3376 64.4984 26.774 64.9535 27.6667 65.5077L27.8254 65.6066C28.5593 66.0618 29.0354 66.4576 29.2536 66.7941C29.4718 67.1305 29.5908 67.5659 29.5908 68.0607C29.5908 68.6346 29.3726 69.1096 28.9561 69.4856C28.5395 69.8616 28.0039 70.0398 27.3493 70.0398C26.9327 70.0398 26.5756 69.9804 26.2384 69.8616C25.9012 69.7429 25.6036 69.5648 25.2863 69.3075H25.3061ZM33.34 69.9012V63.3505H30.5628V62.3609H37.1883V63.3505H34.4112V69.9012H33.34ZM38.5174 62.3609H39.5886V66.6951C39.5886 67.1701 39.6084 67.5263 39.6679 67.7242C39.7274 67.9222 39.8068 68.1003 39.9258 68.2388C40.144 68.4961 40.4217 68.694 40.7192 68.8325C41.0168 68.9711 41.3739 69.0304 41.7706 69.0304C42.4252 69.0304 42.9608 68.8523 43.3575 68.5159C43.7543 68.1794 43.9526 67.7242 43.9526 67.1701V62.3609H45.0238V67.2097C45.0238 68.0409 44.7263 68.7336 44.1312 69.2481C43.5361 69.7627 42.7426 70.0398 41.7706 70.0398C41.1953 70.0398 40.6796 69.9408 40.2233 69.7429C39.7671 69.545 39.3703 69.2481 39.053 68.8523C38.8546 68.6148 38.7157 68.3576 38.6364 68.0805C38.557 67.7836 38.5174 67.3482 38.5174 66.7545V62.3807V62.3609ZM49.8838 63.3901H48.1779V68.8721H49.8838C50.8162 68.8721 51.5501 68.6346 52.0857 68.1399C52.6213 67.6451 52.8792 66.992 52.8792 66.141C52.8792 65.29 52.6213 64.6171 52.0857 64.1223C51.5501 63.6276 50.8162 63.3901 49.8838 63.3901ZM49.8838 62.3609C50.4393 62.3609 50.9153 62.4203 51.3319 62.5193C51.7286 62.6182 52.1055 62.7963 52.4428 63.014C52.9585 63.3505 53.3553 63.8057 53.633 64.34C53.9107 64.8744 54.0495 65.4681 54.0495 66.1212C54.0495 66.7743 53.9107 67.368 53.633 67.9222C53.3553 68.4565 52.9585 68.9117 52.4428 69.2481C52.1254 69.4658 51.7485 69.644 51.3319 69.7429C50.9153 69.8419 50.4393 69.9012 49.8838 69.9012H47.1067V62.3609H49.8838ZM55.8349 69.9012V62.3609H56.9259V69.9012H55.8349ZM59.8022 66.141C59.8022 66.517 59.8815 66.893 60.0204 67.2493C60.1593 67.6055 60.3775 67.9024 60.6353 68.1794C60.8932 68.4565 61.2106 68.6544 61.5677 68.793C61.9247 68.9315 62.3016 69.0106 62.6785 69.0106C63.0753 69.0106 63.4522 68.9315 63.7894 68.793C64.1266 68.6544 64.444 68.4367 64.7217 68.1596C64.9994 67.8826 65.1978 67.5857 65.3367 67.2295C65.4755 66.8732 65.5549 66.517 65.5549 66.1212C65.5549 65.7452 65.4755 65.3691 65.3367 65.0327C65.1978 64.6963 64.9796 64.3796 64.7019 64.0827C64.4242 63.8057 64.1266 63.588 63.7696 63.4494C63.4125 63.3109 63.0554 63.2317 62.6587 63.2317C62.2818 63.2317 61.9247 63.3109 61.5677 63.4494C61.2106 63.588 60.8932 63.8057 60.6155 64.0827C60.3378 64.34 60.1394 64.6567 60.0006 65.0129C59.8617 65.3691 59.7824 65.7254 59.7824 66.1212L59.8022 66.141ZM58.6517 66.1014C58.6517 65.6066 58.7509 65.1119 58.9691 64.6369C59.1674 64.1619 59.465 63.7463 59.8419 63.3703C60.2188 62.9943 60.6552 62.7172 61.1511 62.5193C61.6272 62.3214 62.1429 62.2224 62.6785 62.2224C63.234 62.2224 63.7497 62.3214 64.2456 62.5193C64.7416 62.7172 65.178 62.9943 65.535 63.3703C65.9318 63.7463 66.2293 64.1817 66.4277 64.6369C66.626 65.1119 66.7252 65.6066 66.7252 66.1608C66.7252 66.6753 66.626 67.1701 66.4277 67.6451C66.2293 68.1201 65.9318 68.5357 65.5549 68.8919C65.1581 69.2679 64.7217 69.545 64.2456 69.7429C63.7696 69.9408 63.234 70.0398 62.6984 70.0398C62.1628 70.0398 61.647 69.9408 61.1511 69.7429C60.6552 69.545 60.2188 69.2679 59.8617 68.9117C59.465 68.5357 59.1674 68.1003 58.9691 67.6253C58.7707 67.1503 58.6715 66.6358 58.6715 66.1014H58.6517Z" fill="#E3F1FF"/>
</svg>
