<svg width="27" height="46" viewBox="0 0 27 46" fill="none" xmlns="http://www.w3.org/2000/svg">
<path opacity="0.5" fill-rule="evenodd" clip-rule="evenodd" d="M0 13.4907C0 6.03999 6.04252 0 13.5 0C20.9558 0 27 6.03733 27 13.4907V32.5093C27 39.96 20.9575 46 13.5 46C6.04416 46 0 39.9627 0 32.5093V13.4907ZM1 13.4907V32.5093C1 39.4093 6.59534 45 13.5 45C20.4048 45 26 39.4081 26 32.5093V13.4907C26 6.59072 20.4047 1 13.5 1C6.59523 1 1 6.59185 1 13.4907Z" fill="#E3F1FF"/>
<rect opacity="0.7" x="12" y="11" width="3" height="8" rx="1.5" fill="#E3F1FF"/>
</svg>
