<svg width="32" height="32" viewBox="0 0 32 32" fill="none" xmlns="http://www.w3.org/2000/svg">
<path fill-rule="evenodd" clip-rule="evenodd" d="M16 0.00012207C24.8366 0.00012207 32 7.16358 32 16.0001C32 24.8367 24.8366 32.0001 16 32.0001C7.16341 32.0001 0 24.8367 0 16.0001C0 7.16358 7.16341 0.00012207 16 0.00012207Z" fill="#EEEEEE"/>
<path d="M14.5544 16.1705C13.6069 16.1705 12.8414 16.936 12.8554 17.8742C12.8647 18.4763 13.1961 18.9991 13.6839 19.2908C13.5182 19.0364 13.4202 18.7353 13.4155 18.4109C13.4015 17.4728 14.167 16.7073 15.1145 16.7073C15.3012 16.7073 15.4809 16.7376 15.649 16.7913V14.9126C15.4739 14.8869 15.2942 14.8729 15.1145 14.8729C15.1052 14.8729 15.0982 14.8729 15.0888 14.8729V16.2545C14.9208 16.2008 14.7411 16.1705 14.5544 16.1705Z" fill="#D0D0D0"/>
<path d="M18.6502 10.5367H18.6362H18.1508C18.2908 11.2392 18.6852 11.8507 19.236 12.2661C18.8742 11.7877 18.6549 11.1902 18.6502 10.5367Z" fill="#D0D0D0"/>
<path d="M21.5067 13.3956C21.3223 13.3956 21.145 13.377 20.9699 13.3443V14.6909C20.3352 14.6909 19.719 14.5672 19.1403 14.3198C18.7669 14.1611 18.4191 13.9581 18.0994 13.713L18.1087 17.8648C18.1041 18.7984 17.7353 19.6735 17.0679 20.334C16.5241 20.8708 15.8356 21.2138 15.0888 21.3235C14.9138 21.3492 14.7341 21.3632 14.5544 21.3632C13.7562 21.3632 12.9954 21.1041 12.377 20.6257C12.447 20.7097 12.5216 20.7914 12.6033 20.8708C13.2755 21.5335 14.167 21.9 15.1168 21.9C15.2965 21.9 15.4762 21.886 15.6513 21.8603C16.3981 21.7506 17.0865 21.4075 17.6303 20.8708C18.2978 20.2103 18.6665 19.3351 18.6712 18.4016L18.6362 14.2498C18.9536 14.4949 19.3013 14.7002 19.677 14.8566C20.2581 15.1016 20.8743 15.2277 21.5067 15.2277" fill="#D0D0D0"/>
<path d="M12.5963 15.9068C13.2614 15.2464 14.146 14.88 15.0888 14.873V14.3759C14.9138 14.3502 14.7341 14.3362 14.5544 14.3362C13.6022 14.3362 12.7083 14.7026 12.0362 15.37C11.3757 16.0258 10.9977 16.922 11 17.8532C11 18.7914 11.3711 19.6712 12.0409 20.3363C12.1482 20.4414 12.2579 20.5394 12.3746 20.6281C11.8472 20.0003 11.5601 19.2161 11.5578 18.39C11.5601 17.4588 11.9359 16.5626 12.5963 15.9068Z" fill="#A6A6A6"/>
<path d="M20.9699 13.3443V12.8449H20.9653C20.3165 12.8449 19.719 12.6302 19.2383 12.2661C19.656 12.8169 20.2675 13.209 20.9699 13.3443Z" fill="#A6A6A6"/>
<path d="M15.0188 20.0633C15.2405 20.0749 15.4528 20.0446 15.6489 19.9816C16.3257 19.7599 16.8134 19.1298 16.8134 18.3876L16.8158 15.6104V10.5368H18.1507C18.1157 10.3617 18.097 10.1844 18.0947 10H16.2557V15.0713L16.2533 17.8485C16.2533 18.5907 15.7656 19.2208 15.0888 19.4425C14.8927 19.5078 14.6804 19.5382 14.4587 19.5242C14.1763 19.5078 13.9125 19.4238 13.6838 19.2885C13.9709 19.7319 14.461 20.0329 15.0188 20.0633Z" fill="#A6A6A6"/>
<path d="M15.0888 21.3235C15.8356 21.2138 16.5241 20.8707 17.0679 20.334C17.7353 19.6735 18.1041 18.7983 18.1087 17.8648L18.0994 13.713C18.4168 13.9581 18.7645 14.1634 19.1403 14.3198C19.7214 14.5649 20.3375 14.6909 20.9699 14.6909V13.3443C20.2675 13.2089 19.656 12.8168 19.2383 12.2661C18.6875 11.8507 18.2908 11.2392 18.1531 10.5367H16.8158V15.6081L16.8135 18.3853C16.8135 19.1274 16.3257 19.7575 15.6489 19.9792C15.4529 20.0446 15.2405 20.0749 15.0188 20.0609C14.4587 20.0306 13.9709 19.7295 13.6839 19.2884C13.1961 18.999 12.8647 18.4739 12.8554 17.8718C12.8414 16.9336 13.6069 16.1682 14.5544 16.1682C14.7411 16.1682 14.9208 16.1985 15.0888 16.2522V14.8706C14.146 14.8776 13.2615 15.244 12.5963 15.9044C11.9359 16.5602 11.5578 17.4564 11.5601 18.3853C11.5601 19.2114 11.8472 19.9956 12.377 20.6234C12.9977 21.1018 13.7562 21.3608 14.5544 21.3608C14.7341 21.3632 14.9138 21.3492 15.0888 21.3235Z" fill="#6D757A"/>
</svg>
