<svg width="32" height="32" viewBox="0 0 32 32" fill="none" xmlns="http://www.w3.org/2000/svg">
<path fill-rule="evenodd" clip-rule="evenodd" d="M16 0.00012207C24.8366 0.00012207 32 7.16358 32 16.0001C32 24.8367 24.8366 32.0001 16 32.0001C7.16341 32.0001 0 24.8367 0 16.0001C0 7.16358 7.16341 0.00012207 16 0.00012207Z" fill="#EEEEEE"/>
<path d="M21.9306 18.6731C21.8983 18.6189 21.6981 18.184 20.735 17.2901C19.7268 16.3541 19.8622 16.5061 21.0766 14.8876C21.8163 13.9019 22.112 13.3 22.0194 13.0427C21.9314 12.7974 21.3874 12.8621 21.3874 12.8621L19.5786 12.8726C19.5786 12.8726 19.4446 12.8546 19.3446 12.914C19.2475 12.9727 19.185 13.1081 19.185 13.1081C19.185 13.1081 18.8984 13.8711 18.5161 14.5197C17.7103 15.8883 17.3875 15.9606 17.2558 15.8756C16.9496 15.6777 17.0263 15.0795 17.0263 14.6551C17.0263 13.3286 17.2272 12.7756 16.6343 12.6326C16.4372 12.5852 16.2927 12.5536 15.7893 12.5483C15.1438 12.5415 14.5967 12.5506 14.2875 12.7018C14.0813 12.8026 13.9226 13.0276 14.0196 13.0404C14.1393 13.0562 14.4101 13.1134 14.5539 13.309C14.7397 13.5611 14.7329 14.1284 14.7329 14.1284C14.7329 14.1284 14.8398 15.6897 14.4839 15.8838C14.2393 16.017 13.9045 15.7454 13.1859 14.5031C12.818 13.8673 12.5396 13.1638 12.5396 13.1638C12.5396 13.1638 12.4862 13.0329 12.3906 12.9629C12.2748 12.8779 12.1122 12.8508 12.1122 12.8508L10.3922 12.8613C10.3922 12.8613 10.1341 12.8689 10.0393 12.981C9.95502 13.081 10.0325 13.2872 10.0325 13.2872C10.0325 13.2872 11.3794 16.4376 12.9038 18.026C14.3025 19.4819 15.8902 19.3864 15.8902 19.3864H16.6095C16.6095 19.3864 16.8269 19.3623 16.9375 19.2427C17.0399 19.1328 17.0361 18.9266 17.0361 18.9266C17.0361 18.9266 17.0218 17.9613 17.4703 17.8191C17.9119 17.6791 18.4793 18.7521 19.0805 19.1652C19.5349 19.4774 19.8803 19.4089 19.8803 19.4089L21.4882 19.3864C21.4882 19.3864 22.3294 19.3345 21.9306 18.6731Z" fill="#656B6F"/>
</svg>
